HIERARCHY
ROOT Hips
{
	OFFSET 0.000000 88.474243 0.000000
	CHANNELS 6 Xposition Yposition Zposition Zrotation Yrotation Xrotation 
	JOINT Hips_Spine
	{
		OFFSET 0.000000 0.000000 0.000000
		CHANNELS 3 Zrotation Yrotation Xrotation
		JOINT Spine
		{
			OFFSET 0.005100 8.711998 -0.691000
			CHANNELS 3 Zrotation Yrotation Xrotation
			JOINT Spine1
			{
				OFFSET -0.009200 8.660301 -1.275000
				CHANNELS 3 Zrotation Yrotation Xrotation
				JOINT Spine2
				{
					OFFSET 0.006300 9.852501 -1.857000
					CHANNELS 3 Zrotation Yrotation Xrotation
					JOINT Spine2_Neck
					{
						OFFSET 0.000000 0.000000 0.000000
						CHANNELS 3 Zrotation Yrotation Xrotation
						JOINT Neck
						{
							OFFSET 0.016300 11.420799 -0.263300
							CHANNELS 3 Zrotation Yrotation Xrotation
							End Site #name: Head
							{
								OFFSET -0.019200 9.262405 2.362500
							}
						}
					}
					JOINT Spine2_LeftShoulder
					{
						OFFSET 0.000000 0.000000 0.000000
						CHANNELS 3 Zrotation Yrotation Xrotation
						JOINT LeftShoulder
						{
							OFFSET 5.616900 6.732201 -0.345700
							CHANNELS 3 Zrotation Yrotation Xrotation
							JOINT LeftArm
							{
								OFFSET 10.664888 -0.183372 -2.440700
								CHANNELS 3 Zrotation Yrotation Xrotation
								JOINT LeftForeArm
								{
									OFFSET 27.459126 0.000000 0.000000
									CHANNELS 3 Zrotation Yrotation Xrotation
									End Site #name: LeftHand
									{
										OFFSET 21.306858 0.000000 0.000000
									}
								}
							}
						}
					}
					JOINT Spine2_RightShoulder
					{
						OFFSET 0.000000 0.000000 0.000000
						CHANNELS 3 Zrotation Yrotation Xrotation
						JOINT RightShoulder
						{
							OFFSET -5.580300 6.737503 -0.344400
							CHANNELS 3 Zrotation Yrotation Xrotation
							JOINT RightArm
							{
								OFFSET -10.679335 -0.188484 -2.383900
								CHANNELS 3 Zrotation Yrotation Xrotation
								JOINT RightForeArm
								{
									OFFSET -27.503529 0.000000 0.000000
									CHANNELS 3 Zrotation Yrotation Xrotation
									End Site #name: RightHand
									{
										OFFSET -21.306808 0.000000 0.000000
									}
								}
							}
						}
					}
				}
			}
		}
	}
	JOINT Hips_LeftUpLeg
	{
		OFFSET 0.000000 0.000000 0.000000
		CHANNELS 3 Zrotation Yrotation Xrotation
		JOINT LeftUpLeg
		{
			OFFSET 6.857700 -6.739601 0.312100
			CHANNELS 3 Zrotation Yrotation Xrotation
			JOINT LeftLeg
			{
				OFFSET -0.367590 -34.731552 -4.572400
				CHANNELS 3 Zrotation Yrotation Xrotation
				End Site #name: LeftFoot
				{
					OFFSET 0.367590 -34.656704 -6.067400
				}
			}
		}
	}
	JOINT Hips_RightUpLeg
	{
		OFFSET 0.000000 0.000000 0.000000
		CHANNELS 3 Zrotation Yrotation Xrotation
		JOINT RightUpLeg
		{
			OFFSET -6.876100 -6.733299 0.301000
			CHANNELS 3 Zrotation Yrotation Xrotation
			JOINT RightLeg
			{
				OFFSET 0.347353 -34.795158 -4.515900
				CHANNELS 3 Zrotation Yrotation Xrotation
				End Site #name: RightFoot
				{
					OFFSET -0.347353 -34.589367 -6.070300
				}
			}
		}
	}
}
MOTION
Frames: 16
Frame Time: 0.041667
0.641797 -0.440983 0.056653 -7.636220 14.708381 -7.815161 -0.000000 -0.000000 -0.000000 2.322286 -1.899492 14.706433 0.005044 -1.083647 5.756645 0.000000 0.000000 0.000000 1.158624 1.767311 5.242530 12.177903 3.733247 1.411500 -0.473873 0.190209 1.715631 -14.332260 -17.148893 11.977020 -79.030592 -58.326339 5.304520 3.728644 -21.207477 -2.742511 -0.260557 2.931510 3.031656 -8.707925 16.868374 -4.609877 65.633142 35.102910 -13.883115 0.949833 63.929379 11.410608 0.000000 -0.000000 -0.000000 23.823933 38.794414 -22.008264 5.331672 -20.075423 -15.743242 -0.000000 0.000000 -0.000000 -3.242849 -7.499843 -67.931261 -7.372537 -8.766248 47.299279 
1.949506 -0.337563 0.264751 -12.144171 21.851249 -9.509857 -0.000000 -0.000000 -0.000000 2.007658 -3.303136 7.495933 -0.519403 -0.535633 5.019864 0.000000 0.000000 0.000000 1.221506 2.004782 5.010370 15.234926 1.048056 7.114069 -2.254602 0.868267 -0.792953 -46.408646 -35.525669 28.386446 72.848122 -66.278783 -156.564223 5.634052 -16.762617 -0.266382 -1.417140 3.538422 6.759470 -27.433187 33.836480 -21.253113 78.240220 26.726796 -11.212537 -8.321493 42.754504 10.454289 0.000000 -0.000000 -0.000000 47.027315 39.332942 10.975820 7.929859 -22.857171 -35.963109 -0.000000 0.000000 -0.000000 -11.759524 3.149371 -75.287496 -10.985534 -10.644741 59.607675 
3.366596 -0.157232 0.498949 -17.702847 29.039246 -9.433887 -0.000000 -0.000000 -0.000000 6.282845 -1.535526 6.929377 -0.861741 0.209759 2.623791 0.000000 0.000000 0.000000 0.887673 2.791315 4.451616 12.299666 0.284811 11.439231 -2.213631 2.439442 -2.254906 -65.948714 -40.085513 35.517449 56.141407 -38.221900 -149.510349 5.470721 -8.768639 -0.312307 -3.113122 4.990154 7.546022 -54.114626 38.225130 -40.144617 78.778024 30.214082 -10.188794 -5.859072 81.045623 15.404920 0.000000 -0.000000 -0.000000 59.584100 43.180172 28.573360 8.531838 -28.545764 -33.298073 -0.000000 0.000000 -0.000000 -20.846437 1.558660 -93.229994 -11.643273 -10.251642 62.178586 
5.079577 -0.070115 0.460429 -28.372789 35.061169 -11.863103 -0.000000 -0.000000 -0.000000 7.491751 -0.632388 6.447254 -1.128848 -0.014026 1.276629 0.000000 0.000000 0.000000 0.675595 3.394434 4.395347 11.720661 -2.011231 17.163051 -1.753347 3.496064 -2.892765 -75.518745 -42.041616 41.129948 61.605909 -30.731704 -148.875752 5.704060 3.067911 -0.099214 -3.852427 6.559086 7.242050 -67.309651 40.797379 -49.428540 81.196947 33.494392 -7.848595 164.963124 81.483026 -171.697749 0.000000 -0.000000 -0.000000 65.070645 42.988621 35.231072 11.701591 -27.644627 -41.317624 -0.000000 0.000000 -0.000000 -28.743919 -0.570330 -103.546778 -10.997185 -9.948140 61.833804 
7.167319 -0.115936 0.240213 -38.983944 42.157608 -16.101156 -0.000000 -0.000000 -0.000000 7.638992 -0.696385 4.613644 -0.803243 -0.364732 0.240885 0.000000 0.000000 0.000000 0.911234 4.042954 4.375802 10.976926 -3.247870 21.428805 -1.192514 4.437341 -3.695209 -80.196218 -42.916044 44.604214 66.055268 -29.340927 -146.572972 5.556379 7.906656 1.267106 -4.095078 8.359855 6.528705 -78.173034 42.075779 -57.940284 82.729837 36.252237 -5.997223 168.089345 60.546030 -168.216870 0.000000 -0.000000 -0.000000 67.992450 40.804374 37.812506 14.321918 -27.232758 -48.638718 -0.000000 0.000000 -0.000000 -34.097374 -3.664390 -115.708547 -11.020854 -10.095830 61.423157 
9.488945 -0.215065 0.172840 -48.928661 47.438064 -21.523176 -0.000000 -0.000000 -0.000000 7.890523 -1.020481 1.788174 0.199571 -0.117692 -1.812388 0.000000 0.000000 0.000000 1.329173 4.729209 4.205471 10.300666 -3.759996 23.413282 -0.757684 5.326837 -4.437156 -82.533188 -43.618430 47.135133 63.191602 -28.709224 -141.880694 5.520990 9.106894 2.534414 -4.192151 9.795571 5.712554 -85.411221 42.913239 -63.770458 82.240671 38.690789 -4.351358 169.011630 48.819166 -167.839052 -0.000000 -0.000000 -0.000000 68.868342 36.025240 38.451757 16.682280 -27.300561 -52.711960 -0.000000 0.000000 -0.000000 -36.495697 -5.795879 -126.351810 -11.164289 -9.916007 61.387731 
11.906024 -0.305812 0.467728 -59.911036 52.512236 -28.652430 -0.000000 -0.000000 -0.000000 8.570527 -1.213513 -2.173278 1.331259 0.201450 -3.654073 0.000000 0.000000 0.000000 1.921912 5.525246 4.132260 10.766447 -2.076649 26.779130 -0.377025 6.268973 -4.915079 -84.387193 -43.247071 48.400392 58.051046 -27.916919 -139.175038 5.480240 10.898789 3.263959 -4.176841 11.165292 5.205740 -92.036073 43.122649 -69.622421 81.703639 40.884481 -2.454086 169.696551 40.739977 -168.132292 -0.000000 -0.000000 -0.000000 68.893803 30.192470 38.541584 19.080665 -27.032444 -56.043438 -0.000000 0.000000 -0.000000 -39.539625 -6.111390 -131.538347 -11.119868 -9.485840 62.169419 
14.389097 -0.436113 0.921446 -71.632108 56.421467 -37.692804 -0.000000 -0.000000 -0.000000 9.756052 -1.312439 -6.086252 2.465037 0.573192 -5.051054 0.000000 0.000000 0.000000 2.621839 6.305618 4.123663 11.957978 -0.080493 29.767871 0.043061 7.245261 -5.093664 -85.328958 -41.911910 48.051214 51.478429 -27.178790 -138.091773 5.648082 13.997461 3.784893 -4.040797 12.441259 4.724450 -98.152080 42.842849 -75.001571 81.781118 42.943260 -0.532907 170.131172 34.327377 -168.714376 -0.000000 -0.000000 -0.000000 68.085355 23.682515 38.285163 21.312901 -26.858926 -59.125853 -0.000000 0.000000 -0.000000 -42.479143 -5.696792 -134.389253 -10.907567 -8.741924 63.673295 
16.906748 -0.474613 1.473149 -83.043536 59.299746 -47.818041 -0.000000 -0.000000 -0.000000 10.774421 -1.135132 -9.418834 3.551690 0.839825 -6.160815 0.000000 0.000000 0.000000 3.621015 7.016292 3.740045 13.293592 1.834471 31.252638 0.393377 8.168083 -4.974546 -85.644122 -40.257484 46.859216 43.835233 -26.249536 -137.738514 5.970266 18.772609 4.323864 -3.862024 13.721798 4.307057 -103.190902 42.426618 -79.630287 82.133341 44.746006 1.330855 170.484430 28.829360 -169.426738 -0.000000 -0.000000 -0.000000 67.438485 16.466929 39.371636 23.554113 -26.702062 -61.902081 -0.000000 0.000000 -0.000000 -43.996731 -5.566478 -136.562720 -10.279120 -7.594366 65.368599 
19.463585 -0.372549 2.101694 -93.690841 61.010495 -57.904067 -0.000000 -0.000000 -0.000000 11.409736 -0.778340 -12.267699 4.532348 0.956339 -7.049001 0.000000 0.000000 0.000000 4.591290 7.596428 3.274957 14.468876 3.295536 31.737976 0.679534 8.869108 -4.766949 -85.695457 -38.724853 45.334836 40.252042 -26.565985 -139.604113 6.206887 22.560141 4.607902 -3.444103 14.726262 4.270479 -107.005529 41.921662 -83.236650 82.659741 46.188578 3.494898 170.746755 24.258204 -169.913615 -0.000000 -0.000000 -0.000000 66.467328 8.758792 40.840187 25.620433 -26.373808 -64.886758 -0.000000 0.000000 -0.000000 -44.523282 -5.678920 -137.820511 -9.527710 -6.507150 66.805860 
22.037060 -0.121766 2.761209 -104.166501 61.920654 -67.697369 -0.000000 -0.000000 -0.000000 11.461520 -0.080885 -14.562242 5.490484 0.942013 -7.708344 0.000000 0.000000 0.000000 5.498224 8.039696 2.854977 15.375408 4.085234 31.429288 0.901399 9.475020 -4.601030 -85.373881 -37.209293 43.532688 37.170347 -27.070036 -142.055656 6.466002 25.542879 4.744528 -3.129824 15.484738 4.336779 -109.737037 41.397224 -85.931831 83.945865 47.526110 6.271731 170.968926 19.572540 -170.177672 -0.000000 -0.000000 -0.000000 65.126301 1.751388 42.175904 27.395029 -25.781125 -68.118712 -0.000000 0.000000 -0.000000 -44.011696 -5.776140 -137.707987 -8.840657 -5.557357 67.715252 
24.632460 0.258738 3.365247 -112.968432 62.013443 -76.000965 -0.000000 -0.000000 -0.000000 11.558961 0.644803 -16.385075 6.340648 0.892272 -8.281909 0.000000 0.000000 0.000000 6.233812 8.331279 2.537290 15.958562 4.246119 29.961963 1.064411 9.957019 -4.354036 -84.735800 -35.984593 41.741540 34.901478 -27.764885 -144.397903 6.771145 28.275014 4.899769 -2.866863 15.965933 4.393435 -111.310247 40.983722 -87.750874 85.226490 48.554407 9.658756 171.111303 14.662333 -170.297107 -0.000000 -0.000000 -0.000000 63.745973 -3.867691 43.354756 28.757664 -25.178938 -71.376566 -0.000000 0.000000 -0.000000 -43.230187 -6.499599 -137.090692 -8.356702 -4.794668 68.426607 
27.276699 0.743532 3.857998 -121.107864 61.499521 -83.591254 -0.000000 -0.000000 -0.000000 11.670127 1.185766 -17.609215 7.030142 0.809668 -8.607536 0.000000 0.000000 0.000000 6.826134 8.515940 2.375460 16.386180 4.127552 27.727917 1.157713 10.303450 -4.137343 -83.600610 -35.019912 39.736109 33.024857 -28.615001 -146.297744 7.180628 31.092753 5.170516 -2.688312 16.151952 4.439659 -111.942264 40.678880 -88.831931 86.724450 49.216934 12.667415 171.114886 10.149568 -170.305587 -0.000000 -0.000000 -0.000000 62.932203 -7.898476 44.097689 29.670288 -24.718884 -74.350260 -0.000000 0.000000 -0.000000 -42.179018 -7.042690 -135.870120 -8.047099 -4.220806 69.206760 
29.954172 1.304889 4.208828 -129.297286 60.318767 -90.989029 -0.000000 -0.000000 -0.000000 11.587113 1.470252 -18.480810 7.408724 0.708460 -8.930235 0.000000 0.000000 0.000000 7.189379 8.545662 2.315832 16.651227 3.932318 25.008760 1.197222 10.522802 -3.960988 -81.664483 -34.142788 37.136267 32.110856 -29.721925 -147.983018 7.666812 33.830942 5.335995 -2.526145 16.155705 4.399352 -112.050167 40.537348 -89.371130 89.916829 48.974239 16.847257 170.984067 6.747089 -170.333015 -0.000000 -0.000000 -0.000000 62.342881 -10.927506 44.432505 30.121894 -24.245720 -77.265325 -0.000000 0.000000 -0.000000 -41.133897 -7.534554 -134.218105 -7.508821 -3.618912 70.005766 
32.683723 1.905478 4.391708 -134.900757 59.055347 -95.907446 -0.000000 -0.000000 -0.000000 11.237273 1.587315 -19.053134 7.627107 0.576297 -9.197687 0.000000 0.000000 0.000000 7.417596 8.453245 2.294341 16.762109 3.800630 22.717553 1.214053 10.641190 -3.842018 -78.939300 -33.293142 33.955677 32.648168 -30.997057 -149.407179 8.130212 36.413207 5.523908 -2.323770 15.987435 4.272900 -111.812083 40.425306 -89.427325 93.729646 48.503242 20.879922 170.783404 3.720727 -170.437818 -0.000000 -0.000000 -0.000000 61.706911 -13.077833 44.362874 30.140519 -23.764416 -79.844052 -0.000000 0.000000 -0.000000 -40.692773 -7.680363 -132.332383 -6.996472 -2.952803 70.823771 
35.495777 2.537855 4.388084 -138.857525 58.054978 -99.389658 -0.000000 -0.000000 -0.000000 10.827969 1.536420 -19.293528 7.778184 0.435987 -9.385105 0.000000 0.000000 0.000000 7.566037 8.262868 2.295300 16.674434 3.560164 21.052403 1.233004 10.658188 -3.726983 -75.644210 -32.521473 30.388095 33.879904 -31.820944 -150.400988 8.495237 38.320480 5.806605 -2.129875 15.696602 4.153623 -111.280950 40.344527 -89.014256 97.335812 47.765479 23.777987 170.572031 1.355255 -170.611746 -0.000000 -0.000000 -0.000000 60.813682 -14.531873 44.099450 29.913310 -23.330128 -81.995264 -0.000000 0.000000 -0.000000 -40.668162 -7.336561 -130.448943 -6.642925 -2.250401 71.528043 
